HIERARCHY
ROOT SimulationBone
{
	OFFSET 0.000000 0.000000 0.000000
	CHANNELS 6 Xposition Yposition Zposition Zrotation Yrotation Xrotation 
	JOINT Hips
	{
		OFFSET 0.000000 0.000000 0.000000
		CHANNELS 6 Xposition Yposition Zposition Zrotation Yrotation Xrotation 
		JOINT LeftUpLeg
		{
			OFFSET 0.103459 1.857842 10.548500
			CHANNELS 3 Zrotation Yrotation Xrotation
			JOINT LeftLeg
			{
				OFFSET 43.500008 -0.000042 -0.000011
				CHANNELS 3 Zrotation Yrotation Xrotation
				JOINT LeftFoot
				{
					OFFSET 42.372200 0.000000 0.000010
					CHANNELS 3 Zrotation Yrotation Xrotation
					JOINT LeftToe
					{
						OFFSET 17.300018 0.000008 -0.000006
						CHANNELS 3 Zrotation Yrotation Xrotation
						End Site
						{
							OFFSET 0.000000 0.000000 0.000000
						}
					}
				}
			}
		}
		JOINT RightUpLeg
		{
			OFFSET 0.103459 1.857820 -10.548510
			CHANNELS 3 Zrotation Yrotation Xrotation
			JOINT RightLeg
			{
				OFFSET 43.500038 -0.000004 -0.000004
				CHANNELS 3 Zrotation Yrotation Xrotation
				JOINT RightFoot
				{
					OFFSET 42.372261 -0.000019 0.000015
					CHANNELS 3 Zrotation Yrotation Xrotation
					JOINT RightToe
					{
						OFFSET 17.300003 -0.000001 0.000006
						CHANNELS 3 Zrotation Yrotation Xrotation
						End Site
						{
							OFFSET 0.000000 0.000000 0.000000
						}
					}
				}
			}
		}
		JOINT Spine
		{
			OFFSET 6.901967 -2.603730 -0.000004
			CHANNELS 3 Zrotation Yrotation Xrotation
			JOINT Spine1
			{
				OFFSET 12.588097 -0.000009 0.000008
				CHANNELS 3 Zrotation Yrotation Xrotation
				JOINT Spine2
				{
					OFFSET 12.343205 0.000003 -0.000002
					CHANNELS 3 Zrotation Yrotation Xrotation
					JOINT Neck
					{
						OFFSET 25.832899 -0.000006 0.000003
						CHANNELS 3 Zrotation Yrotation Xrotation
						JOINT Head
						{
							OFFSET 11.766611 0.000013 0.000001
							CHANNELS 3 Zrotation Yrotation Xrotation
							End Site
							{
								OFFSET 0.000000 0.000000 0.000000
							}
						}
					}
					JOINT LeftShoulder
					{
						OFFSET 19.745903 -1.480350 6.000102
						CHANNELS 3 Zrotation Yrotation Xrotation
						JOINT LeftArm
						{
							OFFSET 11.284125 -0.000002 -0.000024
							CHANNELS 3 Zrotation Yrotation Xrotation
							JOINT LeftForeArm
							{
								OFFSET 33.000050 0.000009 0.000033
								CHANNELS 3 Zrotation Yrotation Xrotation
								JOINT LeftHand
								{
									OFFSET 25.200012 0.000010 -0.000003
									CHANNELS 3 Zrotation Yrotation Xrotation
									End Site
									{
										OFFSET 0.000000 0.000000 0.000000
									}
								}
							}
						}
					}
					JOINT RightShoulder
					{
						OFFSET 19.746105 -1.480362 -6.000072
						CHANNELS 3 Zrotation Yrotation Xrotation
						JOINT RightArm
						{
							OFFSET 11.284140 -0.000003 -0.000004
							CHANNELS 3 Zrotation Yrotation Xrotation
							JOINT RightForeArm
							{
								OFFSET 33.000099 0.000013 0.000007
								CHANNELS 3 Zrotation Yrotation Xrotation
								JOINT RightHand
								{
									OFFSET 25.199776 0.000126 0.000428
									CHANNELS 3 Zrotation Yrotation Xrotation
									End Site
									{
										OFFSET 0.000000 0.000000 0.000000
									}
								}
							}
						}
					}
				}
			}
		}
	}
}
MOTION
Frames: 15
Frame Time: 0.016667
286.388813 0.000000 -350.696339 0.000000 142.571392 0.000000 0.567042 89.241409 -2.587503 94.040135 -8.932841 177.414159 173.915563 15.466709 -169.021774 -22.002457 -5.749214 1.187350 75.738286 2.017237 9.262244 21.454551 0.003090 0.000000 175.904869 7.497505 -171.416315 -61.233335 -2.032919 12.233793 73.515244 -7.446091 4.072407 21.454563 -0.003110 -0.000017 6.950704 -2.650517 2.424518 3.780671 -5.377844 4.767347 3.462270 -5.348849 4.799722 -22.869644 -21.918724 0.466846 10.294184 28.443207 -10.960657 -151.052991 -79.987329 -30.956743 -29.735979 59.588925 19.804032 -22.522151 -12.320883 0.934721 16.986679 8.574584 59.397189 155.064812 80.078190 -23.763806 19.280568 -66.742837 -47.272526 -47.471173 21.204343 -2.112267 3.647827 6.093605 -28.202338 
286.005709 0.000000 -351.117379 0.000000 142.420500 0.000000 0.910082 89.334653 -2.512756 93.998523 -8.623694 178.047926 174.799373 15.012752 -168.210778 -21.639690 -5.973882 1.087112 76.081455 2.090948 9.369858 21.454547 0.003096 -0.000001 173.138577 7.195730 -172.954661 -66.050423 -2.250722 11.545774 73.866140 -7.065286 3.675955 21.454552 -0.003106 -0.000015 6.912507 -2.558796 2.283261 3.714227 -5.188643 4.488764 3.395789 -5.161327 4.520005 -22.403792 -22.198364 -0.297351 10.256333 29.257754 -11.806442 -151.096124 -80.126149 -30.909024 -30.668293 59.633895 20.035693 -22.938193 -12.602681 0.957870 16.193758 7.811318 57.950189 158.233466 80.126815 -20.552352 19.097305 -66.568175 -47.452666 -48.217420 20.917914 -2.117062 1.988136 8.937902 -26.040351 
285.578711 0.000000 -351.572937 0.000000 142.315759 0.000000 1.202681 89.358810 -2.435623 94.156504 -8.284437 178.640943 175.511287 14.710199 -167.685188 -22.020233 -5.869638 1.157135 76.631716 2.004965 9.409401 21.454550 0.003099 -0.000000 170.600722 6.716793 -174.543080 -70.430895 -2.354945 11.405391 74.560256 -7.151883 3.015888 21.454553 -0.003105 -0.000016 6.936842 -2.442815 2.112673 3.774596 -4.952401 4.149316 3.456126 -4.927135 4.179140 -22.062271 -22.188935 -0.942805 10.168833 29.517669 -12.403100 -152.134989 -80.214971 -29.852469 -31.426447 59.563810 19.762176 -23.625447 -12.729633 0.976409 15.408668 6.990511 56.067321 162.439436 79.915243 -16.299804 18.428242 -66.053814 -46.902815 -49.367763 20.740307 -2.142879 0.830329 10.167057 -24.929840 
285.109839 0.000000 -352.060884 0.000000 142.255189 0.000000 1.429142 89.316317 -2.349655 94.449029 -7.895518 179.237422 176.065071 14.456372 -167.238729 -22.967477 -5.646225 1.291743 77.380753 1.848561 9.430184 21.454554 0.003099 0.000002 168.262966 6.095339 -176.092173 -74.283780 -2.389376 11.627557 75.419789 -7.490166 2.373511 21.454559 -0.003105 -0.000018 7.010538 -2.297665 1.911712 3.935198 -4.658266 3.748107 3.616708 -4.635425 3.776167 -21.845611 -21.941156 -1.465540 10.021567 29.342615 -12.783280 -153.695328 -80.309703 -28.266892 -32.271531 59.475703 19.052251 -24.404430 -12.758489 0.990225 14.516446 6.150322 53.774092 166.657905 79.520012 -12.036569 17.460706 -65.403230 -45.788965 -50.661158 20.623992 -2.178180 -0.254723 10.445131 -24.761300 
284.601111 0.000000 -352.579094 0.000000 142.236873 0.000000 1.573777 89.209610 -2.248657 94.812142 -7.435889 179.881121 176.469234 14.143411 -166.669252 -24.305720 -5.514127 1.387066 78.320392 1.710053 9.482825 21.454557 0.003097 0.000002 166.093303 5.371201 -177.516384 -77.512449 -2.432740 12.040164 76.260168 -7.875482 2.035213 21.454565 -0.003106 -0.000020 7.120344 -2.118441 1.679358 4.169123 -4.295386 3.284344 3.850631 -4.275348 3.310228 -21.750794 -21.504960 -1.864796 9.796779 28.852439 -12.982628 -155.314114 -80.470707 -26.620886 -33.471454 59.464308 17.967602 -25.095729 -12.746098 0.999538 13.398482 5.317908 51.096204 170.110997 79.057753 -8.546136 16.355990 -64.819122 -44.250581 -51.836395 20.522092 -2.211450 -1.637199 10.452571 -25.461841 
284.054550 0.000000 -353.125440 0.000000 142.258952 0.000000 1.629973 89.049967 -2.131199 95.194258 -6.902658 -179.417618 176.760185 13.704343 -165.839210 -25.830829 -5.615442 1.368719 79.412246 1.656875 9.595538 21.454555 0.003092 0.000000 164.061501 4.585450 -178.778769 -80.036291 -2.558120 12.469252 76.908599 -8.151752 2.124517 21.454566 -0.003106 -0.000019 7.254255 -1.906313 1.419122 4.451482 -3.865318 2.766059 4.133007 -3.848412 2.789364 -21.785637 -20.922603 -2.142653 9.506206 28.166526 -13.029228 -156.655348 -80.758908 -25.254577 -35.199226 59.599211 16.567052 -25.602229 -12.743106 1.006775 12.013321 4.483022 48.136444 172.509154 78.646361 -6.121093 15.193726 -64.468243 -42.423734 -52.670096 20.422810 -2.233654 -3.513220 10.747260 -26.868869 
283.472175 0.000000 -353.697795 0.000000 142.319615 0.000000 1.627534 88.884033 -2.013879 95.587391 -6.368328 -178.780429 177.104073 13.243895 -164.860153 -27.215605 -5.802144 1.241322 80.496927 1.680089 9.698090 21.454553 0.003088 -0.000001 162.160220 3.766203 179.973463 -81.845521 -2.725200 12.690606 77.271725 -8.312828 2.082556 21.454565 -0.003107 -0.000018 7.405733 -1.686701 1.152554 4.767340 -3.419095 2.236152 4.448891 -3.405391 2.256777 -22.010165 -20.208196 -2.305452 9.292828 27.401808 -12.918262 -157.828388 -81.208258 -24.056984 -37.198254 59.873648 14.947929 -26.154836 -12.775175 1.018295 10.641420 3.553892 45.304504 174.442785 78.298366 -4.163650 13.900806 -64.367837 -40.604062 -53.091736 20.452030 -2.250316 -5.414663 11.457164 -28.367243 
282.856005 0.000000 -354.294031 0.000000 142.417095 0.000000 1.595263 88.755749 -1.910989 95.959581 -5.901316 -178.322879 177.622135 12.864105 -163.891835 -28.189857 -5.904840 1.032892 81.427500 1.750456 9.724215 21.454551 0.003088 -0.000000 160.368975 2.943972 178.586817 -82.921245 -2.866469 12.503259 77.307392 -8.343060 1.442092 21.454561 -0.003110 -0.000017 7.561294 -1.484180 0.898207 5.088760 -3.006172 1.731300 4.770338 -2.995521 1.749440 -22.465617 -19.373016 -2.363352 9.302658 26.638098 -12.640889 -159.073076 -81.808654 -22.785954 -39.117220 60.261144 13.280342 -27.018812 -12.880934 1.040874 9.540949 2.511321 43.035847 176.437872 78.003429 -2.140075 12.432032 -64.512075 -39.048758 -53.104169 20.707833 -2.268241 -6.829285 12.621068 -29.351538 
282.208061 0.000000 -354.912022 0.000000 142.549665 0.000000 1.521278 88.662880 -1.809424 96.153209 -5.483351 -178.003645 178.104805 12.500505 -163.038787 -28.838796 -5.966848 0.828614 82.228237 1.820622 9.724986 21.454551 0.003091 0.000001 158.575163 2.206803 177.067286 -83.150053 -2.893377 11.873080 77.080651 -8.071889 0.793424 21.454558 -0.003112 -0.000017 7.672807 -1.295392 0.645063 5.320084 -2.618909 1.230563 5.001696 -2.611288 1.246369 -23.070117 -18.446005 -2.328204 9.571581 25.810247 -12.187519 -160.605338 -82.411667 -21.226229 -40.656293 60.703441 11.984689 -28.269320 -13.176414 1.080307 8.567870 1.540064 41.582150 178.367986 77.835185 -0.178047 10.994150 -64.943335 -37.688483 -52.850135 21.040261 -2.281798 -7.756009 14.124188 -29.735962 
281.530364 0.000000 -355.549641 0.000000 142.715626 0.000000 1.392601 88.600567 -1.694933 96.043645 -5.077628 -177.770240 178.358708 12.068310 -162.365774 -29.269806 -6.062566 0.704337 82.940046 1.852548 9.761460 21.454553 0.003095 0.000001 156.706778 1.613075 175.452609 -82.416625 -2.726272 10.853824 76.724809 -7.377537 0.751413 21.454557 -0.003109 -0.000017 7.699610 -1.112851 0.382594 5.380408 -2.242221 0.713473 5.062070 -2.237729 0.727009 -23.699534 -17.448533 -2.219705 10.062965 24.835378 -11.566954 -162.501809 -82.873731 -19.302707 -41.571041 61.164616 11.435693 -29.916417 -13.737602 1.145350 7.528503 0.768714 41.040046 -179.930500 77.829266 1.555145 9.833641 -65.663202 -36.400318 -52.496865 21.273711 -2.285319 -8.257815 15.761509 -29.565337 
280.824933 0.000000 -356.204760 0.000000 142.913309 0.000000 1.233013 88.599617 -1.575096 95.755977 -4.658328 -177.675030 178.592972 11.535509 -161.839024 -29.323961 -6.181516 0.625827 83.498952 1.872334 9.821114 21.454555 0.003098 0.000000 154.970927 1.057598 173.758564 -80.679471 -2.399330 9.677103 76.537951 -6.501673 0.987199 21.454558 -0.003106 -0.000017 7.666393 -0.939300 0.132648 5.318810 -1.883725 0.222286 5.000529 -1.882208 0.233664 -24.181602 -16.356295 -2.095507 10.569684 23.712246 -10.853702 -164.500500 -83.215880 -17.279454 -41.897942 61.680937 11.466397 -31.891628 -14.404408 1.229178 6.480945 -0.057137 41.060832 -178.427204 77.756446 3.085623 9.134340 -66.455593 -35.202906 -52.168677 21.378443 -2.280984 -8.182462 17.196492 -28.915547 
280.093788 0.000000 -356.875253 0.000000 143.141060 0.000000 1.072307 88.690634 -1.459651 95.445985 -4.204567 -177.771051 179.064332 10.894277 -161.377430 -28.826317 -6.285040 0.519847 83.833054 1.926069 9.864503 21.454554 0.003097 -0.000000 153.624726 0.426865 172.009750 -77.906669 -1.988582 8.571941 76.730324 -5.720214 1.051660 21.454557 -0.003106 -0.000017 7.609522 -0.776126 -0.082019 5.208006 -1.547849 -0.198669 4.889779 -1.548884 -0.189310 -24.404085 -15.161528 -1.993616 10.901753 22.483919 -10.116749 -166.226903 -83.493018 -15.533552 -41.794816 62.280614 11.778703 -34.089652 -14.991993 1.314203 5.531692 -1.159500 41.285489 -177.109922 77.418203 4.423601 9.023067 -67.116466 -34.199653 -51.952393 21.380196 -2.273485 -7.436149 18.102559 -27.897359 
279.338950 0.000000 -357.558992 0.000000 143.397243 0.000000 0.927072 88.867729 -1.346036 95.146980 -3.698948 -178.016985 179.820685 10.200899 -160.793636 -27.804712 -6.303337 0.273426 83.943406 2.072292 9.815085 21.454553 0.003093 0.000000 152.822681 -0.307005 170.275714 -74.040759 -1.609742 7.564994 77.041405 -5.055525 0.910674 21.454558 -0.003108 -0.000017 7.545991 -0.610257 -0.268225 5.082394 -1.208267 -0.562839 4.764229 -1.211510 -0.555525 -24.530184 -13.962424 -1.857887 11.087482 21.271144 -9.370121 -167.184847 -83.717455 -14.565176 -41.590160 62.926196 12.123102 -36.346174 -15.448542 1.395608 4.685935 -2.208307 41.728572 -175.773293 77.007393 5.782014 9.266519 -67.698223 -33.496260 -51.827293 21.380633 -2.269296 -6.345088 18.368839 -26.749175 
278.562438 0.000000 -358.253851 0.000000 143.680230 0.000000 0.807690 89.110033 -1.230382 94.855301 -3.131041 -178.359069 -179.168701 9.506126 -159.948591 -26.360027 -6.179023 -0.189109 83.862765 2.348548 9.619593 21.454552 0.003088 -0.000000 152.642070 -1.123838 168.592256 -69.070431 -1.335367 6.583610 77.167517 -4.434759 0.661415 21.454560 -0.003110 -0.000017 7.482844 -0.429287 -0.437227 4.956247 -0.839641 -0.892327 4.638163 -0.844877 -0.887240 -24.735587 -12.855175 -1.632314 11.227319 20.175520 -8.607151 -167.053226 -83.896376 -14.697476 -41.582765 63.582495 12.314636 -38.501756 -15.770851 1.469929 3.935923 -2.845493 42.374438 -174.179921 76.734585 7.405480 9.609056 -68.272036 -33.147733 -51.765597 21.473620 -2.273602 -5.230953 17.936303 -25.774739 
277.766273 0.000000 -358.957702 0.000000 143.988396 0.000000 0.713227 89.373253 -1.116502 94.540546 -2.517906 -178.787002 -178.029400 8.793393 -159.004687 -24.679032 -5.955434 -0.768108 83.680253 2.697421 9.356890 21.454553 0.003084 -0.000001 152.957345 -1.922609 166.829993 -63.222614 -1.020806 5.418737 77.087686 -3.660644 0.543871 21.454562 -0.003111 -0.000017 7.407321 -0.237973 -0.588502 4.804160 -0.451564 -1.186304 4.486146 -0.458580 -1.183560 -24.986425 -11.826124 -1.325466 11.484903 19.149853 -7.789165 -166.503726 -84.056989 -15.251523 -41.704187 64.279277 12.457484 -40.478323 -16.016642 1.536743 3.322172 -3.169971 42.754535 -172.452604 76.508687 9.167479 10.159089 -68.745885 -33.100331 -51.819773 21.645891 -2.287047 -3.927536 16.677538 -25.345340 
